<svg width="28" height="33" viewBox="0 0 28 33" fill="none" xmlns="http://www.w3.org/2000/svg">
<g id="logo-icon-solid-horizontal">
<g id="Group 2">
<path id="path26" d="M26.9985 15.8674L27.6542 15.4577L27.5757 15.8674H26.9985Z" fill="#6ECFE6"/>
<path id="path28" d="M26.6681 18.8028L25.137 19.6011L26.604 16.2358L27.3665 17.3573L26.806 18.5931L26.6681 18.8028Z" fill="#00ACCF"/>
<path id="path30" d="M18.8154 21.4003L23.2288 20.1681L21.15 22.0811L18.8154 21.4003Z" fill="#0E87B8"/>
<path id="path32" d="M18.4542 21.2549L17.7559 19.5353L23.0088 19.9831L18.4542 21.2549Z" fill="#00ACCF"/>
<path id="path34" d="M11.1372 22.8873L10.8391 22.6158L11.1541 22.4606L12.8219 23.2456L11.9192 23.7048L11.1426 22.8861L11.1372 22.8873Z" fill="#1766B5"/>
<path id="path36" d="M6.87036 19.3262L9.81769 22.0081L8.28989 21.7775L6.87036 19.3262Z" fill="#1766B5"/>
<path id="path38" d="M16.6246 0.687695L17.0226 0.616846L16.4683 0.927734L16.6246 0.687695Z" fill="#47B8EC"/>
<path id="path40" d="M25.4025 9.09541L26.8741 12.6045L21.1902 8.9857L23.5533 7.1628V7.26541L23.6808 7.10309L25.3711 9.05702L25.3694 9.062L25.4025 9.09541Z" fill="#C4ECFB"/>
<path id="path42" d="M15.0904 23.5506L15.1114 23.5828L14.4822 23.8179L14.6265 22.7634L14.6478 22.5829L15.9187 21.9362L16.2181 22.4066L15.2303 23.5312L15.0904 23.5506Z" fill="#1766B5"/>
<path id="path44" d="M10.241 22.0717L7.14209 19.2522L11.9825 21.7793L11.1331 22.2061L10.241 22.0717Z" fill="#1766B5"/>
<path id="path46" d="M10.7611 22.3896L10.6505 22.4443L10.5566 22.3588L10.7611 22.3896Z" fill="#14599D"/>
<path id="path48" d="M10.4214 22.5569L9.42194 23.0491L8.34003 22.7197L8.33545 22.024L10.1333 22.2951L10.4214 22.5569Z" fill="#1766B5"/>
<path id="path50" d="M2.4397 16.1162L2.72553 14.0788L2.83965 13.895L5.98933 18.3696L4.05135 17.301L2.4397 16.1162Z" fill="#0799E0"/>
<path id="path52" d="M14.2449 23.7935L13.5932 23.3565L13.5635 23.1345L14.3924 22.7127L14.3899 22.7336L14.2449 23.7935Z" fill="#1766B5"/>
<path id="path54" d="M13.53 22.8853L13.4128 22.0066L14.4666 22.0827L14.4256 22.4296L13.53 22.8853Z" fill="#1766B5"/>
<path id="path56" d="M2.95846 8.78063L6.10405 8.18256L2.91235 13.3257L2.95846 8.78063Z" fill="#47B8EC"/>
<path id="path58" d="M8.72636 3.26565L8.61484 4.03528L6.60474 4.46606L8.52344 2.65359L8.72636 3.26565Z" fill="#59C8DA"/>
<path id="path60" d="M8.85085 4.21259L12.3384 2.02431L14.1748 12.5605L6.5249 7.95578L8.83706 4.23013L8.85392 4.22658L8.85085 4.21259Z" fill="#96DDF8"/>
<path id="path62" d="M14.2116 13.0368L14.0364 19.7832L6.68091 18.6479L14.2116 13.0368Z" fill="#47B8EC"/>
<path id="path64" d="M6.5022 18.4851V8.219L14.1244 12.8072L6.5022 18.4851Z" fill="#C4ECFB"/>
<path id="path66" d="M14.2751 19.7825L14.4438 13.2849L17.3945 19.3078L14.2751 19.7825Z" fill="#59C8DA"/>
<path id="path68" d="M6.26348 8.37674V18.3457L2.97583 13.6751L6.26348 8.37674Z" fill="#47B8EC"/>
<path id="path70" d="M13.8989 20.0017L12.2214 21.6365L7.07275 18.9485L13.8989 20.0017Z" fill="#0B8ED8"/>
<path id="path72" d="M13.7903 20.4373L13.2014 21.752L12.5032 21.6866L13.7903 20.4373Z" fill="#1766B5"/>
<path id="path74" d="M14.7072 22.0782L15.2738 21.9984L14.6812 22.2996L14.7072 22.0782Z" fill="#1766B5"/>
<path id="path76" d="M15.8918 21.6716L14.5955 21.8545L13.4534 21.772L14.2346 20.0283L17.3216 19.5589L15.8918 21.6716Z" fill="#0B8ED8"/>
<path id="path78" d="M14.4929 12.8441L20.8046 9.2338L17.5508 19.0862L14.4929 12.8441Z" fill="#96DDF8"/>
<path id="path80" d="M18.2427 4.08908L20.9897 3.94193L20.9035 8.55664L18.2427 4.08908Z" fill="#66CEF5"/>
<path id="path82" d="M21.1506 8.10449L21.2274 3.99473L22.5187 4.54352L21.1506 8.10449Z" fill="#96DDF8"/>
<path id="path84" d="M22.6744 4.8016L23.528 6.8823L21.1797 8.69336L22.6744 4.8016Z" fill="#C4ECFB"/>
<path id="path86" d="M18.3442 3.84595L20.072 2.12565L20.9184 3.70851L18.3442 3.84595Z" fill="#66CEF5"/>
<path id="path88" d="M16.3225 1.36776L18.5746 1.17654L17.9843 3.69751L16.3225 1.36776Z" fill="#0799E0"/>
<path id="path90" d="M17.7154 3.72949L12.8862 1.8791L16.0503 1.39548L17.7154 3.72949Z" fill="#66CEF5"/>
<path id="path92" d="M17.9588 4.0771L20.7869 8.8264L20.8184 8.9527L14.4256 12.6104L12.5789 2.01535L17.9588 4.0771Z" fill="#C4ECFB"/>
<path id="path94" d="M12.1456 1.865L8.8728 3.9187L8.96121 3.30735L10.69 1.40318L12.1456 1.865Z" fill="#59C8DA"/>
<path id="path96" d="M8.71655 2.47862L9.1589 2.11253L8.85639 2.90088L8.71655 2.47862Z" fill="#59C8DA"/>
<path id="path98" d="M6.26778 4.45874L5.71289 2.85929L6.72019 2.31666L8.31468 2.52423L6.26778 4.45874Z" fill="#59C8DA"/>
<path id="path100" d="M6.37173 4.75828L8.51384 4.2993L6.33596 7.80908L4.64502 6.31697L6.23104 4.81894L6.43591 4.9431L6.37173 4.75828Z" fill="#47B8EC"/>
<path id="path102" d="M6.12243 7.9377L3.0376 8.52417L4.48722 6.49512L6.12243 7.9377Z" fill="#47B8EC"/>
<path id="path104" d="M2.67473 13.2554L2.2854 12.3853L2.70976 9.79961L2.67473 13.2554Z" fill="#0799E0"/>
<path id="path106" d="M2.55548 13.5727L2.49595 13.9969L1.84985 15.0381L2.21515 12.8119L2.55548 13.5727Z" fill="#0799E0"/>
<path id="path108" d="M12.2797 21.8957L13.1696 21.9855L13.3048 22.9997L13.0896 23.1094L11.4241 22.3255L12.2797 21.8957Z" fill="#1766B5"/>
<path id="path110" d="M13.3451 23.4919L13.2765 23.8044L12.3728 23.7402L13.0938 23.3734L13.3451 23.4919Z" fill="#1766B5"/>
<path id="path112" d="M13.5608 23.6209L13.9005 23.8484L13.5168 23.8211L13.5608 23.6209Z" fill="#1766B5"/>
<path id="path114" d="M14.0617 24.0975L13.2947 24.8325L13.4653 24.0553L14.0617 24.0975Z" fill="#1766B5"/>
<path id="path116" d="M14.218 24.277V25.3757L13.3274 25.13L14.218 24.277Z" fill="#1766B5"/>
<path id="path118" d="M16.3282 22.6296L16.6461 23.3369L15.5879 23.4822L16.3282 22.6296Z" fill="#1766B5"/>
<path id="path120" d="M16.4036 22.2568L16.1584 21.8704L17.6457 21.6348L16.4036 22.2568Z" fill="#1766B5"/>
<path id="path122" d="M16.2131 21.6218L17.5459 19.6523L18.2169 21.3043L16.2131 21.6218Z" fill="#0E87B8"/>
<path id="path124" d="M20.9601 9.522L23.5166 19.7888L17.728 19.2952L20.9601 9.522Z" fill="#59C8DA"/>
<path id="path126" d="M21.1643 9.35576L26.435 15.9884L23.7272 19.6472L21.1643 9.35576Z" fill="#6ECFE6"/>
<path id="path128" d="M26.5136 15.7048L21.6106 9.53451L26.9997 12.9656L26.5136 15.7048Z" fill="#96DDF8"/>
<path id="path130" d="M23.5533 6.31641L22.8909 4.70179L23.5533 4.98329V6.31641Z" fill="#C4ECFB"/>
<path id="path132" d="M21.408 3.81409L22.9205 3.13616L22.5929 4.31738L21.408 3.81409Z" fill="#96DDF8"/>
<path id="path134" d="M21.0445 3.43921L20.4226 2.27647L21.1435 2.74043L21.0445 3.43921Z" fill="#96DDF8"/>
<path id="path136" d="M18.251 3.60352L18.8054 1.23562L19.913 1.94838L18.251 3.60352Z" fill="#66CEF5"/>
<path id="path138" d="M16.6406 1.10278L17.6873 0.516318L18.371 0.956109L16.6406 1.10278Z" fill="#0799E0"/>
<path id="path140" d="M12.8184 1.64966L14.2413 0.430759L15.7284 1.20489L12.8184 1.64966Z" fill="#66CEF5"/>
<path id="path142" d="M12.498 1.61108L12.1294 2.18153e-05L14.1256 0.217077L12.498 1.61108Z" fill="#66CEF5"/>
<path id="path144" d="M12.2629 1.65381L10.8689 1.21165L11.9093 0.108147L12.2629 1.65381Z" fill="#59C8DA"/>
<path id="path146" d="M9.18628 2.70581L9.52409 1.82386L10.2316 1.55444L9.18628 2.70581Z" fill="#59C8DA"/>
<path id="path148" d="M9.32497 1.67446L8.54238 2.31519L6.94238 2.10691L9.63698 0.469777L9.32497 1.67446Z" fill="#59C8DA"/>
<path id="path150" d="M5.99436 4.39819L5.34082 4.00224L5.57679 3.19493L5.99436 4.39819Z" fill="#0E87B8"/>
<path id="path152" d="M4.5529 6.08008L4.35742 4.78938H5.9185L4.5529 6.08008Z" fill="#00ACCF"/>
<path id="path154" d="M2.81127 8.43359L2.05859 6.08583L4.25876 6.40928L2.81127 8.43359Z" fill="#0799E0"/>
<path id="path156" d="M2.10854 11.9902L1.51294 10.6585L2.57007 9.17876L2.10854 11.9902Z" fill="#0799E0"/>
<path id="path158" d="M2.03863 12.4168L1.69066 14.5369L1.52734 11.2742L2.03863 12.4168Z" fill="#0799E0"/>
<path id="path160" d="M1.77808 15.6053L2.41411 14.5803L2.22126 15.9553L1.81413 15.6558L1.77808 15.6053Z" fill="#0B8ED8"/>
<path id="path162" d="M2.40233 16.3826L3.68949 17.3283L3.08587 17.4377L2.39087 16.4639L2.40233 16.3826Z" fill="#0799E0"/>
<path id="path164" d="M3.13754 17.669L3.95981 17.5199L5.92267 18.6035H2.99146L3.13754 17.669Z" fill="#0B8ED8"/>
<path id="path166" d="M3.12744 18.8407H6.31385L8.02451 21.7944L6.16963 22.0659L3.12744 18.8407Z" fill="#0B8ED8"/>
<path id="path168" d="M8.26373 22.9445L9.22889 23.2384L7.81616 23.4985L8.26373 22.9445Z" fill="#1766B5"/>
<path id="path170" d="M10.61 22.7287L10.8436 22.9412L9.78198 23.137L10.61 22.7287Z" fill="#1766B5"/>
<path id="path172" d="M13.2251 24.0381L13.039 24.885L12.1641 23.9628L13.2251 24.0381Z" fill="#1766B5"/>
<path id="path174" d="M13.6422 30.597L13.4562 31.2039L13.1365 30.7854L13.6422 30.597Z" fill="#1766B5"/>
<path id="path176" d="M13.7143 30.3169L13.092 30.5488L13.9343 27.8608L13.7143 30.3169Z" fill="#1766B5"/>
<path id="path178" d="M13.0898 29.7588L13.2028 25.5208L14.0073 26.8314L13.0898 29.7588Z" fill="#1766B5"/>
<path id="path180" d="M13.055 31.0706L13.3549 31.4632L13.0322 31.9241L13.055 31.0706Z" fill="#1766B5"/>
<path id="path182" d="M13.5064 31.6619L13.9225 32.2071L13.0891 32.2581L13.5064 31.6619Z" fill="#1766B5"/>
<path id="path184" d="M15.6534 32.3809L14.4263 32.2266L15.7777 31.0243L15.6534 32.3809Z" fill="#1766B5"/>
<path id="path186" d="M16.0003 31.2091L16.4144 32.161L15.8965 32.3411L16.0003 31.2091Z" fill="#1766B5"/>
<path id="path188" d="M14.169 32.1377L13.634 31.437L13.9104 30.5349L15.6578 30.8131L14.169 32.1377Z" fill="#1766B5"/>
<path id="path190" d="M14.0115 29.6731L14.2429 27.0903L14.8658 27.6962L14.0115 29.6731Z" fill="#1766B5"/>
<path id="path192" d="M15.0485 27.8739L15.676 28.4841L14.1663 29.9158L15.0485 27.8739Z" fill="#1766B5"/>
<path id="path194" d="M14.3457 26.8589L15.4927 26.2452L14.9666 27.4626L14.3457 26.8589Z" fill="#1766B5"/>
<path id="path196" d="M14.2937 26.6174L14.4447 25.7703L14.5468 25.7127L15.4954 25.9746L14.2937 26.6174Z" fill="#1766B5"/>
<path id="path198" d="M14.2179 25.6845L14.0749 26.4861L13.4067 25.398L14.2179 25.6219V25.6845Z" fill="#1766B5"/>
<path id="path200" d="M14.4563 25.4419V24.1825L15.743 24.7644L14.5152 25.458L14.4563 25.4419Z" fill="#1766B5"/>
<path id="path202" d="M14.6479 24.0089L15.2426 23.7871L15.6875 24.479L14.6479 24.0089Z" fill="#1766B5"/>
<path id="path204" d="M15.4917 23.7346L16.6985 23.569L16.0098 24.54L15.4917 23.7346Z" fill="#1766B5"/>
<path id="path206" d="M16.8899 23.2986L16.5149 22.4662L18.0115 21.7167L16.8899 23.2986Z" fill="#1766B5"/>
<path id="path208" d="M23.9741 19.7139L26.0554 16.9015L24.8152 19.7435H24.7966L24.7957 19.748L23.994 19.7871L24.1164 19.6741L23.9741 19.7139Z" fill="#00ACCF"/>
<path id="path210" d="M26.749 15.7434L27.1609 13.4227L27.6825 15.1605L26.749 15.7434Z" fill="#00ACCF"/>
<path id="path212" d="M27.1347 12.6099L25.8508 9.54839L27.6806 11.3978L27.1347 12.6099Z" fill="#96DDF8"/>
<path id="path214" d="M27.5402 10.9182L25.6372 8.99413L26.2048 7.03759L27.5402 10.9182Z" fill="#96DDF8"/>
<path id="path216" d="M25.4498 8.78516L23.8567 6.9516L25.3532 6.08552L26.0594 6.68383L25.4498 8.78516Z" fill="#96DDF8"/>
<path id="path218" d="M25.1609 5.92219L23.7917 6.68115V5.09663L25.1609 5.92219Z" fill="#C4ECFB"/>
<path id="path220" d="M22.9023 4.44857L23.5534 3.93699V4.72534L22.9023 4.44857Z" fill="#96DDF8"/>
<path id="path222" d="M23.5082 3.67042L22.8828 4.16187L23.1524 3.1913L23.5082 3.67042Z" fill="#96DDF8"/>
<path id="path224" d="M21.2598 3.62036L21.3753 2.80476L22.6771 2.98532L21.2598 3.62036Z" fill="#96DDF8"/>
<path id="path226" d="M16.0923 1.06885L15.5044 0.378355L16.3673 0.646354L16.0923 1.06885Z" fill="#47B8EC"/>
<path id="path228" d="M15.62 0.881104L14.4028 0.247484L15.1497 0.328758L15.62 0.881104Z" fill="#47B8EC"/>
<path id="path230" d="M10.6173 1.13174L10.6158 1.13127L10.5836 1.16681L9.60571 1.53931L9.92192 0.320408L11.6488 0.0377212L10.6173 1.13174Z" fill="#59C8DA"/>
<path id="path232" d="M5.20202 4.19563L5.79071 4.55249H4.63184L5.20202 4.19563Z" fill="#00ACCF"/>
<path id="path234" d="M4.1262 4.85629L4.32668 6.17969L2.25537 5.8752L4.1262 4.85629Z" fill="#00ACCF"/>
<path id="path236" d="M1.94492 6.51167L2.63844 8.67532L1.54395 10.2058L1.94492 6.51167Z" fill="#0799E0"/>
<path id="path238" d="M1.29711 11.4459L1.49257 15.3538L0.505127 14.5818L1.29711 11.4459Z" fill="#0799E0"/>
<path id="path240" d="M2.34287 16.8064L2.90727 17.5971L2.77199 18.4636L2.19604 17.853L2.34287 16.8064Z" fill="#0799E0"/>
<path id="path242" d="M8.09685 22.0231L8.10172 22.7659L7.51506 23.4924L6.36792 22.2761L8.09685 22.0231Z" fill="#0B8ED8"/>
<path id="path244" d="M11.1863 32.3738L12.8183 30.9926L12.7841 32.2764L11.1863 32.3738Z" fill="#1766B5"/>
<path id="path246" d="M16.66 32.1287L16.0117 30.8262L18.0115 32.3809L16.66 32.1287Z" fill="#1766B5"/>
<path id="path248" d="M15.7999 30.5955L14.0828 30.3225L15.7374 28.7534L15.7999 30.5955Z" fill="#1766B5"/>
<path id="path250" d="M15.7185 28.1936L15.1494 27.6401L15.6597 26.4593L15.7185 28.1936Z" fill="#1766B5"/>
<path id="path252" d="M15.671 25.7773L14.8394 25.5475L15.8435 24.9802L15.671 25.7773Z" fill="#1766B5"/>
<path id="path254" d="M19.754 22.8618L18.7229 21.6202L20.8528 22.2415L19.754 22.8618Z" fill="#1766B5"/>
<path id="path256" d="M22.7099 21.9282L21.5271 22.0571L23.3976 20.3354L22.8447 21.8808L22.7099 21.9282Z" fill="#1766B5"/>
<path id="path258" d="M24.4647 21.3084L23.1343 21.7781L23.7581 20.0355L24.7447 19.9876L24.4647 21.3084Z" fill="#0E87B8"/>
<path id="path260" d="M26.0493 19.7434H25.3589L26.4028 19.206L26.0493 19.7434Z" fill="#00ACCF"/>
<path id="path262" d="M27.0673 16.4492L26.8176 16.1044H27.4394L27.0673 16.4492Z" fill="#6ECFE6"/>
<path id="path400" d="M20.0787 23.2986L19.9131 23.0827L21.1796 22.3588L22.7304 22.1489L22.5384 22.7126L20.0787 23.2986Z" fill="#1766B5"/>
</g>
</g>
</svg>
