<svg width="64" height="64" viewBox="0 0 64 64" fill="none" xmlns="http://www.w3.org/2000/svg">
<rect width="64" height="64" rx="32" fill="white" fill-opacity="0.3"/>
<path d="M44.9985 30.8674L45.6542 30.4577L45.5757 30.8674H44.9985Z" fill="#6ECFE6"/>
<path d="M44.6681 33.8028L43.137 34.6011L44.604 31.2358L45.3665 32.3573L44.806 33.5931L44.6681 33.8028Z" fill="#00ACCF"/>
<path d="M36.8154 36.4003L41.2288 35.1681L39.15 37.0811L36.8154 36.4003Z" fill="#0E87B8"/>
<path d="M36.4542 36.2549L35.7559 34.5353L41.0088 34.9831L36.4542 36.2549Z" fill="#00ACCF"/>
<path d="M29.1372 37.8873L28.8391 37.6158L29.1541 37.4606L30.8219 38.2456L29.9192 38.7048L29.1426 37.8861L29.1372 37.8873Z" fill="#1766B5"/>
<path d="M24.8704 34.3262L27.8177 37.0081L26.2899 36.7775L24.8704 34.3262Z" fill="#1766B5"/>
<path d="M34.6246 15.6877L35.0226 15.6168L34.4683 15.9277L34.6246 15.6877Z" fill="#47B8EC"/>
<path d="M43.4025 24.0954L44.8741 27.6045L39.1902 23.9857L41.5533 22.1628V22.2654L41.6808 22.1031L43.3711 24.057L43.3694 24.062L43.4025 24.0954Z" fill="#C4ECFB"/>
<path d="M33.0904 38.5506L33.1114 38.5828L32.4822 38.8179L32.6265 37.7634L32.6478 37.5829L33.9187 36.9362L34.2181 37.4066L33.2303 38.5312L33.0904 38.5506Z" fill="#1766B5"/>
<path d="M28.241 37.0717L25.1421 34.2522L29.9825 36.7793L29.1331 37.2061L28.241 37.0717Z" fill="#1766B5"/>
<path d="M28.7611 37.3896L28.6505 37.4443L28.5566 37.3588L28.7611 37.3896Z" fill="#14599D"/>
<path d="M28.4214 37.5569L27.4219 38.0491L26.34 37.7197L26.3354 37.024L28.1333 37.2951L28.4214 37.5569Z" fill="#1766B5"/>
<path d="M20.4397 31.1162L20.7255 29.0788L20.8396 28.895L23.9893 33.3696L22.0514 32.301L20.4397 31.1162Z" fill="#0799E0"/>
<path d="M32.2449 38.7935L31.5932 38.3565L31.5635 38.1345L32.3924 37.7127L32.3899 37.7336L32.2449 38.7935Z" fill="#1766B5"/>
<path d="M31.53 37.8853L31.4128 37.0066L32.4666 37.0827L32.4256 37.4296L31.53 37.8853Z" fill="#1766B5"/>
<path d="M20.9585 23.7806L24.1041 23.1826L20.9124 28.3257L20.9585 23.7806Z" fill="#47B8EC"/>
<path d="M26.7264 18.2656L26.6148 19.0353L24.6047 19.4661L26.5234 17.6536L26.7264 18.2656Z" fill="#59C8DA"/>
<path d="M26.8508 19.2126L30.3384 17.0243L32.1748 27.5605L24.5249 22.9558L26.8371 19.2301L26.8539 19.2266L26.8508 19.2126Z" fill="#96DDF8"/>
<path d="M32.2116 28.0368L32.0364 34.7832L24.6809 33.6479L32.2116 28.0368Z" fill="#47B8EC"/>
<path d="M24.5022 33.4851V23.219L32.1244 27.8072L24.5022 33.4851Z" fill="#C4ECFB"/>
<path d="M32.2751 34.7825L32.4438 28.2849L35.3945 34.3078L32.2751 34.7825Z" fill="#59C8DA"/>
<path d="M24.2635 23.3767V33.3457L20.9758 28.6751L24.2635 23.3767Z" fill="#47B8EC"/>
<path d="M31.8989 35.0017L30.2214 36.6365L25.0728 33.9485L31.8989 35.0017Z" fill="#0B8ED8"/>
<path d="M31.7903 35.4373L31.2014 36.752L30.5032 36.6866L31.7903 35.4373Z" fill="#1766B5"/>
<path d="M32.7072 37.0782L33.2738 36.9984L32.6812 37.2996L32.7072 37.0782Z" fill="#1766B5"/>
<path d="M33.8918 36.6716L32.5955 36.8545L31.4534 36.772L32.2346 35.0283L35.3216 34.5589L33.8918 36.6716Z" fill="#0B8ED8"/>
<path d="M32.4929 27.8441L38.8046 24.2338L35.5508 34.0862L32.4929 27.8441Z" fill="#96DDF8"/>
<path d="M36.2427 19.0891L38.9897 18.9419L38.9035 23.5566L36.2427 19.0891Z" fill="#66CEF5"/>
<path d="M39.1506 23.1045L39.2274 18.9947L40.5187 19.5435L39.1506 23.1045Z" fill="#96DDF8"/>
<path d="M40.6744 19.8016L41.528 21.8823L39.1797 23.6934L40.6744 19.8016Z" fill="#C4ECFB"/>
<path d="M36.3442 18.8459L38.072 17.1256L38.9184 18.7085L36.3442 18.8459Z" fill="#66CEF5"/>
<path d="M34.3225 16.3678L36.5746 16.1765L35.9843 18.6975L34.3225 16.3678Z" fill="#0799E0"/>
<path d="M35.7154 18.7295L30.8862 16.8791L34.0503 16.3955L35.7154 18.7295Z" fill="#66CEF5"/>
<path d="M35.9588 19.0771L38.7869 23.8264L38.8184 23.9527L32.4256 27.6104L30.5789 17.0153L35.9588 19.0771Z" fill="#C4ECFB"/>
<path d="M30.1456 16.865L26.8728 18.9187L26.9612 18.3074L28.69 16.4032L30.1456 16.865Z" fill="#59C8DA"/>
<path d="M26.7166 17.4786L27.1589 17.1125L26.8564 17.9009L26.7166 17.4786Z" fill="#59C8DA"/>
<path d="M24.2678 19.4587L23.7129 17.8593L24.7202 17.3167L26.3147 17.5242L24.2678 19.4587Z" fill="#59C8DA"/>
<path d="M24.3717 19.7583L26.5138 19.2993L24.336 22.8091L22.645 21.317L24.231 19.8189L24.4359 19.9431L24.3717 19.7583Z" fill="#47B8EC"/>
<path d="M24.1224 22.9377L21.0376 23.5242L22.4872 21.4951L24.1224 22.9377Z" fill="#47B8EC"/>
<path d="M20.6747 28.2554L20.2854 27.3853L20.7098 24.7996L20.6747 28.2554Z" fill="#0799E0"/>
<path d="M20.5555 28.5727L20.4959 28.9969L19.8499 30.0381L20.2151 27.8119L20.5555 28.5727Z" fill="#0799E0"/>
<path d="M30.2797 36.8957L31.1696 36.9855L31.3048 37.9997L31.0896 38.1094L29.4241 37.3255L30.2797 36.8957Z" fill="#1766B5"/>
<path d="M31.3451 38.4919L31.2765 38.8044L30.3728 38.7402L31.0938 38.3734L31.3451 38.4919Z" fill="#1766B5"/>
<path d="M31.5608 38.6209L31.9005 38.8484L31.5168 38.8211L31.5608 38.6209Z" fill="#1766B5"/>
<path d="M32.0617 39.0975L31.2947 39.8325L31.4653 39.0553L32.0617 39.0975Z" fill="#1766B5"/>
<path d="M32.218 39.277V40.3757L31.3274 40.13L32.218 39.277Z" fill="#1766B5"/>
<path d="M34.3282 37.6296L34.6461 38.3369L33.5879 38.4822L34.3282 37.6296Z" fill="#1766B5"/>
<path d="M34.4036 37.2568L34.1584 36.8704L35.6457 36.6348L34.4036 37.2568Z" fill="#1766B5"/>
<path d="M34.2131 36.6218L35.5459 34.6523L36.2169 36.3043L34.2131 36.6218Z" fill="#0E87B8"/>
<path d="M38.9601 24.522L41.5166 34.7888L35.728 34.2952L38.9601 24.522Z" fill="#59C8DA"/>
<path d="M39.1643 24.3558L44.435 30.9884L41.7272 34.6472L39.1643 24.3558Z" fill="#6ECFE6"/>
<path d="M44.5136 30.7048L39.6106 24.5345L44.9997 27.9656L44.5136 30.7048Z" fill="#96DDF8"/>
<path d="M41.5533 21.3164L40.8909 19.7018L41.5533 19.9833V21.3164Z" fill="#C4ECFB"/>
<path d="M39.408 18.8141L40.9205 18.1362L40.5929 19.3174L39.408 18.8141Z" fill="#96DDF8"/>
<path d="M39.0445 18.4392L38.4226 17.2765L39.1435 17.7404L39.0445 18.4392Z" fill="#96DDF8"/>
<path d="M36.251 18.6035L36.8054 16.2356L37.913 16.9484L36.251 18.6035Z" fill="#66CEF5"/>
<path d="M34.6406 16.1028L35.6873 15.5163L36.371 15.9561L34.6406 16.1028Z" fill="#0799E0"/>
<path d="M30.8184 16.6497L32.2413 15.4308L33.7284 16.2049L30.8184 16.6497Z" fill="#66CEF5"/>
<path d="M30.498 16.6111L30.1294 15L32.1256 15.2171L30.498 16.6111Z" fill="#66CEF5"/>
<path d="M30.2629 16.6538L28.8689 16.2117L29.9093 15.1081L30.2629 16.6538Z" fill="#59C8DA"/>
<path d="M27.1863 17.7058L27.5241 16.8239L28.2316 16.5544L27.1863 17.7058Z" fill="#59C8DA"/>
<path d="M27.325 16.6745L26.5424 17.3152L24.9424 17.1069L27.637 15.4698L27.325 16.6745Z" fill="#59C8DA"/>
<path d="M23.9944 19.3982L23.3408 19.0022L23.5768 18.1949L23.9944 19.3982Z" fill="#0E87B8"/>
<path d="M22.5529 21.0801L22.3574 19.7894H23.9185L22.5529 21.0801Z" fill="#00ACCF"/>
<path d="M20.8113 23.4336L20.0586 21.0858L22.2588 21.4093L20.8113 23.4336Z" fill="#0799E0"/>
<path d="M20.1085 26.9902L19.5129 25.6585L20.5701 24.1788L20.1085 26.9902Z" fill="#0799E0"/>
<path d="M20.0386 27.4168L19.6907 29.5369L19.5273 26.2742L20.0386 27.4168Z" fill="#0799E0"/>
<path d="M19.7781 30.6053L20.4141 29.5803L20.2213 30.9553L19.8141 30.6558L19.7781 30.6053Z" fill="#0B8ED8"/>
<path d="M20.4023 31.3826L21.6895 32.3283L21.0859 32.4377L20.3909 31.4639L20.4023 31.3826Z" fill="#0799E0"/>
<path d="M21.1375 32.669L21.9598 32.5199L23.9227 33.6035H20.9915L21.1375 32.669Z" fill="#0B8ED8"/>
<path d="M21.1274 33.8407H24.3138L26.0245 36.7944L24.1696 37.0659L21.1274 33.8407Z" fill="#0B8ED8"/>
<path d="M26.2637 37.9445L27.2289 38.2384L25.8162 38.4985L26.2637 37.9445Z" fill="#1766B5"/>
<path d="M28.61 37.7287L28.8436 37.9412L27.782 38.137L28.61 37.7287Z" fill="#1766B5"/>
<path d="M31.2251 39.0381L31.039 39.885L30.1641 38.9628L31.2251 39.0381Z" fill="#1766B5"/>
<path d="M31.6422 45.597L31.4562 46.2039L31.1365 45.7854L31.6422 45.597Z" fill="#1766B5"/>
<path d="M31.7143 45.3169L31.092 45.5488L31.9343 42.8608L31.7143 45.3169Z" fill="#1766B5"/>
<path d="M31.0898 44.7588L31.2028 40.5208L32.0073 41.8314L31.0898 44.7588Z" fill="#1766B5"/>
<path d="M31.055 46.0706L31.3549 46.4632L31.0322 46.9241L31.055 46.0706Z" fill="#1766B5"/>
<path d="M31.5064 46.6619L31.9225 47.2071L31.0891 47.2581L31.5064 46.6619Z" fill="#1766B5"/>
<path d="M33.6534 47.3809L32.4263 47.2266L33.7777 46.0243L33.6534 47.3809Z" fill="#1766B5"/>
<path d="M34.0003 46.2091L34.4144 47.161L33.8965 47.3411L34.0003 46.2091Z" fill="#1766B5"/>
<path d="M32.169 47.1377L31.634 46.437L31.9104 45.5349L33.6578 45.8131L32.169 47.1377Z" fill="#1766B5"/>
<path d="M32.0115 44.6731L32.2429 42.0903L32.8658 42.6962L32.0115 44.6731Z" fill="#1766B5"/>
<path d="M33.0485 42.8739L33.676 43.4841L32.1663 44.9158L33.0485 42.8739Z" fill="#1766B5"/>
<path d="M32.3457 41.8589L33.4927 41.2452L32.9666 42.4626L32.3457 41.8589Z" fill="#1766B5"/>
<path d="M32.2937 41.6174L32.4447 40.7703L32.5468 40.7127L33.4954 40.9746L32.2937 41.6174Z" fill="#1766B5"/>
<path d="M32.2179 40.6845L32.0749 41.4861L31.4067 40.398L32.2179 40.6219V40.6845Z" fill="#1766B5"/>
<path d="M32.4563 40.4419V39.1825L33.743 39.7644L32.5152 40.458L32.4563 40.4419Z" fill="#1766B5"/>
<path d="M32.6479 39.0089L33.2426 38.7871L33.6875 39.479L32.6479 39.0089Z" fill="#1766B5"/>
<path d="M33.4917 38.7346L34.6985 38.569L34.0098 39.54L33.4917 38.7346Z" fill="#1766B5"/>
<path d="M34.8899 38.2986L34.5149 37.4662L36.0115 36.7167L34.8899 38.2986Z" fill="#1766B5"/>
<path d="M41.9741 34.7139L44.0554 31.9015L42.8152 34.7435H42.7966L42.7957 34.748L41.994 34.7871L42.1164 34.6741L41.9741 34.7139Z" fill="#00ACCF"/>
<path d="M44.749 30.7434L45.1609 28.4227L45.6825 30.1605L44.749 30.7434Z" fill="#00ACCF"/>
<path d="M45.1347 27.6099L43.8508 24.5484L45.6806 26.3978L45.1347 27.6099Z" fill="#96DDF8"/>
<path d="M45.5402 25.9182L43.6372 23.9941L44.2048 22.0376L45.5402 25.9182Z" fill="#96DDF8"/>
<path d="M43.4498 23.7852L41.8567 21.9516L43.3532 21.0855L44.0594 21.6838L43.4498 23.7852Z" fill="#96DDF8"/>
<path d="M43.1609 20.9222L41.7917 21.6812V20.0966L43.1609 20.9222Z" fill="#C4ECFB"/>
<path d="M40.9023 19.4486L41.5534 18.937V19.7253L40.9023 19.4486Z" fill="#96DDF8"/>
<path d="M41.5082 18.6704L40.8828 19.1619L41.1524 18.1913L41.5082 18.6704Z" fill="#96DDF8"/>
<path d="M39.2598 18.6204L39.3753 17.8048L40.6771 17.9853L39.2598 18.6204Z" fill="#96DDF8"/>
<path d="M34.0923 16.0688L33.5044 15.3784L34.3673 15.6464L34.0923 16.0688Z" fill="#47B8EC"/>
<path d="M33.62 15.8811L32.4028 15.2475L33.1497 15.3288L33.62 15.8811Z" fill="#47B8EC"/>
<path d="M28.6173 16.1317L28.6158 16.1313L28.5836 16.1668L27.6057 16.5393L27.9219 15.3204L29.6488 15.0377L28.6173 16.1317Z" fill="#59C8DA"/>
<path d="M23.202 19.1956L23.7907 19.5525H22.6318L23.202 19.1956Z" fill="#00ACCF"/>
<path d="M22.1262 19.8563L22.3267 21.1797L20.2554 20.8752L22.1262 19.8563Z" fill="#00ACCF"/>
<path d="M19.9449 21.5117L20.6384 23.6753L19.5439 25.2058L19.9449 21.5117Z" fill="#0799E0"/>
<path d="M19.2971 26.4459L19.4926 30.3538L18.5051 29.5818L19.2971 26.4459Z" fill="#0799E0"/>
<path d="M20.3429 31.8064L20.9073 32.5971L20.772 33.4636L20.196 32.853L20.3429 31.8064Z" fill="#0799E0"/>
<path d="M26.0969 37.0231L26.1017 37.7659L25.5151 38.4924L24.3679 37.2761L26.0969 37.0231Z" fill="#0B8ED8"/>
<path d="M29.1863 47.3738L30.8183 45.9926L30.7841 47.2764L29.1863 47.3738Z" fill="#1766B5"/>
<path d="M34.66 47.1287L34.0117 45.8262L36.0115 47.3809L34.66 47.1287Z" fill="#1766B5"/>
<path d="M33.7999 45.5955L32.0828 45.3225L33.7374 43.7534L33.7999 45.5955Z" fill="#1766B5"/>
<path d="M33.7185 43.1936L33.1494 42.6401L33.6597 41.4593L33.7185 43.1936Z" fill="#1766B5"/>
<path d="M33.671 40.7773L32.8394 40.5475L33.8435 39.9802L33.671 40.7773Z" fill="#1766B5"/>
<path d="M37.754 37.8618L36.7229 36.6202L38.8528 37.2415L37.754 37.8618Z" fill="#1766B5"/>
<path d="M40.7099 36.9282L39.5271 37.0571L41.3976 35.3354L40.8447 36.8808L40.7099 36.9282Z" fill="#1766B5"/>
<path d="M42.4647 36.3084L41.1343 36.7781L41.7581 35.0355L42.7447 34.9876L42.4647 36.3084Z" fill="#0E87B8"/>
<path d="M44.0493 34.7434H43.3589L44.4028 34.206L44.0493 34.7434Z" fill="#00ACCF"/>
<path d="M45.0673 31.4492L44.8176 31.1044H45.4394L45.0673 31.4492Z" fill="#6ECFE6"/>
<path d="M38.0787 38.2986L37.9131 38.0827L39.1796 37.3588L40.7304 37.1489L40.5384 37.7126L38.0787 38.2986Z" fill="#1766B5"/>
</svg>
